<mxfile host="app.diagrams.net" modified="2024-05-01T22:17:08.951Z" agent="Mozilla/5.0 (Windows NT 10.0; Win64; x64) AppleWebKit/537.36 (KHTML, like Gecko) Chrome/124.0.0.0 Safari/537.36" etag="qQbRTsx33vO_LjzYIuoI" version="24.3.1" type="device">
  <diagram id="bc47vRQSer-DN1HRI0ml" name="Page-1">
    <mxGraphModel dx="882" dy="578" grid="1" gridSize="10" guides="1" tooltips="1" connect="1" arrows="1" fold="1" page="1" pageScale="1" pageWidth="850" pageHeight="1100" math="0" shadow="0">
      <root>
        <mxCell id="0" />
        <mxCell id="1" parent="0" />
        <mxCell id="EtgMitFuruBxjGAC0nHd-1" value="" style="swimlane;startSize=0;" vertex="1" parent="1">
          <mxGeometry x="40" y="40" width="160" height="360" as="geometry" />
        </mxCell>
        <mxCell id="EtgMitFuruBxjGAC0nHd-3" value="Web servers" style="rounded=1;whiteSpace=wrap;html=1;" vertex="1" parent="EtgMitFuruBxjGAC0nHd-1">
          <mxGeometry x="40" y="40" width="80" height="40" as="geometry" />
        </mxCell>
        <mxCell id="EtgMitFuruBxjGAC0nHd-4" value="DB cluster" style="rounded=1;whiteSpace=wrap;html=1;" vertex="1" parent="EtgMitFuruBxjGAC0nHd-1">
          <mxGeometry x="40" y="120" width="80" height="40" as="geometry" />
        </mxCell>
        <mxCell id="EtgMitFuruBxjGAC0nHd-5" value="Queue clusters" style="rounded=1;whiteSpace=wrap;html=1;" vertex="1" parent="EtgMitFuruBxjGAC0nHd-1">
          <mxGeometry x="40" y="200" width="80" height="40" as="geometry" />
        </mxCell>
        <mxCell id="EtgMitFuruBxjGAC0nHd-6" value="Cache clusters" style="rounded=1;whiteSpace=wrap;html=1;" vertex="1" parent="EtgMitFuruBxjGAC0nHd-1">
          <mxGeometry x="40" y="280" width="80" height="40" as="geometry" />
        </mxCell>
        <mxCell id="EtgMitFuruBxjGAC0nHd-7" value="Metrics source" style="text;html=1;align=center;verticalAlign=middle;whiteSpace=wrap;rounded=0;" vertex="1" parent="1">
          <mxGeometry x="40" y="40" width="160" height="40" as="geometry" />
        </mxCell>
        <mxCell id="EtgMitFuruBxjGAC0nHd-13" style="edgeStyle=orthogonalEdgeStyle;rounded=0;orthogonalLoop=1;jettySize=auto;html=1;exitX=1;exitY=0.5;exitDx=0;exitDy=0;entryX=0;entryY=0.5;entryDx=0;entryDy=0;" edge="1" parent="1" source="EtgMitFuruBxjGAC0nHd-8" target="EtgMitFuruBxjGAC0nHd-9">
          <mxGeometry relative="1" as="geometry" />
        </mxCell>
        <mxCell id="EtgMitFuruBxjGAC0nHd-14" style="edgeStyle=orthogonalEdgeStyle;rounded=0;orthogonalLoop=1;jettySize=auto;html=1;exitX=0;exitY=0.5;exitDx=0;exitDy=0;" edge="1" parent="1" source="EtgMitFuruBxjGAC0nHd-8" target="EtgMitFuruBxjGAC0nHd-1">
          <mxGeometry relative="1" as="geometry" />
        </mxCell>
        <mxCell id="EtgMitFuruBxjGAC0nHd-8" value="Metrics collector" style="rounded=1;whiteSpace=wrap;html=1;" vertex="1" parent="1">
          <mxGeometry x="320" y="190" width="120" height="60" as="geometry" />
        </mxCell>
        <mxCell id="EtgMitFuruBxjGAC0nHd-9" value="" style="swimlane;startSize=0;" vertex="1" parent="1">
          <mxGeometry x="560" y="120" width="160" height="200" as="geometry" />
        </mxCell>
        <mxCell id="EtgMitFuruBxjGAC0nHd-10" value="etcd" style="rounded=1;whiteSpace=wrap;html=1;" vertex="1" parent="EtgMitFuruBxjGAC0nHd-9">
          <mxGeometry x="40" y="40" width="80" height="40" as="geometry" />
        </mxCell>
        <mxCell id="EtgMitFuruBxjGAC0nHd-11" value="Zookeeper" style="rounded=1;whiteSpace=wrap;html=1;" vertex="1" parent="EtgMitFuruBxjGAC0nHd-9">
          <mxGeometry x="40" y="120" width="80" height="40" as="geometry" />
        </mxCell>
        <mxCell id="EtgMitFuruBxjGAC0nHd-12" value="Service discovery" style="text;html=1;align=center;verticalAlign=middle;whiteSpace=wrap;rounded=0;" vertex="1" parent="EtgMitFuruBxjGAC0nHd-9">
          <mxGeometry width="160" height="40" as="geometry" />
        </mxCell>
        <mxCell id="EtgMitFuruBxjGAC0nHd-15" value="Discover targets" style="text;html=1;align=center;verticalAlign=middle;whiteSpace=wrap;rounded=0;" vertex="1" parent="1">
          <mxGeometry x="440" y="190" width="120" height="30" as="geometry" />
        </mxCell>
        <mxCell id="EtgMitFuruBxjGAC0nHd-16" value="Http request" style="text;html=1;align=center;verticalAlign=middle;whiteSpace=wrap;rounded=0;" vertex="1" parent="1">
          <mxGeometry x="200" y="190" width="120" height="30" as="geometry" />
        </mxCell>
      </root>
    </mxGraphModel>
  </diagram>
</mxfile>
